<svg xmlns="http://www.w3.org/2000/svg" xmlns:xlink="http://www.w3.org/1999/xlink" width="336" zoomAndPan="magnify" viewBox="0 0 252 143.999998" height="192" preserveAspectRatio="xMidYMid meet" version="1.2"><defs><clipPath id="5ad1f2177d"><path d="M 173.121094 7.832031 L 225.460938 7.832031 L 225.460938 46 L 173.121094 46 Z M 173.121094 7.832031 "/></clipPath></defs><g id="39d63f98b8"><g clip-rule="nonzero" clip-path="url(#5ad1f2177d)"><path style=" stroke:none;fill-rule:nonzero;fill:#4398a7;fill-opacity:1;" d="M 225.414062 34.371094 C 225.367188 34.257812 225.25 34.183594 225.125 34.183594 L 198.441406 34.183594 L 198.441406 33.953125 C 204.800781 29.925781 218.285156 29.761719 218.855469 29.753906 C 218.980469 29.753906 219.097656 29.675781 219.136719 29.5625 C 219.1875 29.445312 219.160156 29.3125 219.066406 29.226562 L 196.839844 7.941406 C 196.75 7.859375 196.617188 7.832031 196.507812 7.882812 C 196.394531 7.929688 196.320312 8.046875 196.320312 8.167969 L 196.320312 34.183594 L 195.3125 34.183594 L 195.3125 12.632812 C 195.3125 12.488281 195.214844 12.367188 195.066406 12.335938 C 194.925781 12.304688 194.785156 12.375 194.71875 12.511719 L 186.574219 31.050781 C 186.53125 31.144531 186.542969 31.253906 186.59375 31.335938 C 186.652344 31.425781 186.746094 31.480469 186.851562 31.480469 C 187.25 31.488281 190.785156 31.625 193.644531 33.664062 L 193.644531 34.183594 L 173.449219 34.183594 C 173.335938 34.183594 173.234375 34.246094 173.179688 34.339844 C 173.121094 34.4375 173.121094 34.550781 173.179688 34.652344 L 176.457031 40.25 C 177.449219 41.9375 178.867188 43.34375 180.5625 44.3125 C 182.253906 45.289062 184.183594 45.800781 186.140625 45.800781 L 209.617188 45.800781 C 211.101562 45.800781 212.550781 45.511719 213.917969 44.941406 C 215.285156 44.375 216.511719 43.558594 217.5625 42.507812 L 225.34375 34.714844 C 225.433594 34.625 225.460938 34.488281 225.414062 34.371094 Z M 217.15625 42.105469 C 215.144531 44.125 212.464844 45.230469 209.617188 45.230469 L 186.140625 45.230469 C 182.375 45.230469 178.851562 43.210938 176.945312 39.960938 L 173.894531 34.75 L 193.898438 34.75 C 194.070312 34.75 194.207031 34.609375 194.207031 34.441406 L 194.207031 33.527344 C 194.207031 33.433594 194.160156 33.339844 194.082031 33.28125 C 191.496094 31.390625 188.363281 31.011719 187.246094 30.933594 L 194.746094 13.859375 L 194.746094 34.441406 C 194.746094 34.609375 194.886719 34.75 195.054688 34.75 L 196.570312 34.75 C 196.742188 34.75 196.878906 34.609375 196.878906 34.441406 L 196.878906 8.769531 L 218.222656 29.199219 C 216.929688 29.230469 213.894531 29.351562 210.457031 29.808594 C 208.003906 30.136719 205.78125 30.574219 203.851562 31.105469 C 201.453125 31.773438 199.484375 32.597656 198.019531 33.554688 C 197.929688 33.613281 197.875 33.710938 197.875 33.8125 L 197.875 34.441406 C 197.875 34.609375 198.011719 34.75 198.179688 34.75 L 224.507812 34.75 Z M 217.15625 42.105469 "/></g><path style=" stroke:none;fill-rule:nonzero;fill:#4398a7;fill-opacity:1;" d="M 64.875 101.601562 L 64.875 102.984375 L 84.144531 102.984375 L 84.144531 101.601562 L 73.914062 101.601562 L 79.386719 84.847656 L 96.832031 84.847656 L 102.472656 101.601562 L 93.539062 101.601562 L 93.539062 102.984375 L 118.972656 102.984375 L 118.972656 101.601562 L 111.425781 101.601562 L 92.40625 43.855469 L 91.359375 43.855469 L 72.339844 101.601562 Z M 88.066406 58.617188 L 96.390625 83.441406 L 79.886719 83.441406 Z M 88.066406 58.617188 "/><path style=" stroke:none;fill-rule:nonzero;fill:#4398a7;fill-opacity:1;" d="M 125.136719 101.601562 L 125.136719 102.984375 L 140.421875 102.984375 L 140.421875 101.601562 L 133.460938 101.601562 L 133.460938 47.503906 L 152.835938 102.984375 L 153.96875 102.984375 L 173.320312 47.144531 L 173.320312 101.601562 L 166.382812 101.601562 L 166.382812 102.984375 L 188.691406 102.984375 L 188.691406 101.601562 L 181.75 101.601562 L 181.75 46.011719 L 188.691406 46.011719 L 188.691406 44.628906 L 172.628906 44.628906 L 157.175781 89.273438 L 141.199219 44.628906 L 125.136719 44.628906 L 125.136719 46.011719 L 132.078125 46.011719 L 132.078125 101.601562 Z M 125.136719 101.601562 "/><path style=" stroke:none;fill-rule:nonzero;fill:#4398a7;fill-opacity:1;" d="M 199.359375 72.9375 L 206.234375 72.9375 C 207.503906 72.9375 208.511719 73.125 209.253906 73.503906 C 210.011719 73.882812 210.601562 74.421875 211.039062 75.117188 C 211.46875 75.804688 211.804688 76.644531 212.042969 77.632812 C 212.28125 78.613281 212.511719 79.710938 212.734375 80.925781 C 212.914062 81.738281 213.144531 82.140625 213.429688 82.140625 C 213.773438 82.140625 213.953125 81.765625 213.953125 81.011719 L 213.953125 63.398438 C 213.953125 62.699219 213.773438 62.347656 213.429688 62.347656 C 213.144531 62.347656 212.914062 62.757812 212.734375 63.5625 C 212.511719 64.78125 212.28125 65.886719 212.042969 66.878906 C 211.804688 67.859375 211.46875 68.695312 211.039062 69.394531 C 210.601562 70.082031 210.011719 70.609375 209.253906 70.988281 C 208.511719 71.363281 207.503906 71.554688 206.234375 71.554688 L 199.359375 71.554688 L 199.359375 46.011719 L 212.566406 46.011719 C 214.539062 46.011719 216.183594 46.496094 217.515625 47.460938 C 218.84375 48.414062 219.914062 49.597656 220.726562 51.023438 C 221.53125 52.441406 222.128906 53.941406 222.507812 55.535156 C 222.886719 57.125 223.101562 58.5625 223.15625 59.832031 C 223.15625 60.644531 223.386719 61.046875 223.847656 61.046875 C 224.253906 61.046875 224.457031 60.671875 224.457031 59.914062 L 224.457031 46.726562 C 224.457031 45.332031 223.734375 44.628906 222.296875 44.628906 L 183.484375 44.628906 L 183.484375 46.011719 L 190.949219 46.011719 L 190.949219 101.601562 L 183.570312 101.601562 L 183.570312 102.984375 L 224.375 102.984375 C 226.050781 102.984375 226.890625 102.058594 226.890625 100.195312 L 226.890625 87.175781 C 226.890625 85.792969 226.660156 85.097656 226.199219 85.097656 C 225.789062 85.097656 225.46875 85.707031 225.234375 86.921875 C 224.773438 89.121094 224.277344 91.117188 223.765625 92.921875 C 223.246094 94.714844 222.554688 96.253906 221.691406 97.554688 C 220.820312 98.855469 219.71875 99.855469 218.375 100.554688 C 217.046875 101.253906 215.367188 101.601562 213.34375 101.601562 L 199.359375 101.601562 Z M 199.359375 72.9375 "/><path style=" stroke:none;fill-rule:nonzero;fill:#4398a7;fill-opacity:1;" d="M 47.257812 36.929688 L 19.808594 36.929688 L 19.808594 38.503906 L 27.695312 38.503906 L 46.777344 70.585938 L 46.777344 101.472656 L 37.320312 101.472656 L 37.320312 103.046875 L 65.753906 103.046875 L 65.753906 101.472656 L 56.316406 101.472656 L 56.316406 68.027344 L 72.546875 38.503906 L 80.515625 38.503906 L 80.515625 36.929688 L 60.445312 36.929688 L 60.445312 38.503906 L 69.988281 38.503906 L 54.742188 66.246094 L 38.21875 38.503906 L 47.257812 38.503906 Z M 47.257812 36.929688 "/><path style=" stroke:none;fill-rule:nonzero;fill:#4398a7;fill-opacity:1;" d="M 124.667969 78.914062 C 124.667969 77.378906 124.152344 76.09375 123.117188 75.058594 C 122.097656 74.023438 120.816406 73.503906 119.28125 73.503906 C 117.738281 73.503906 116.457031 74.023438 115.421875 75.058594 C 114.382812 76.09375 113.871094 77.378906 113.871094 78.914062 C 113.871094 80.441406 114.382812 81.71875 115.421875 82.753906 C 116.457031 83.789062 117.738281 84.304688 119.28125 84.304688 C 120.816406 84.304688 122.097656 83.789062 123.117188 82.753906 C 124.152344 81.71875 124.667969 80.441406 124.667969 78.914062 Z M 124.667969 78.914062 "/><path style=" stroke:none;fill-rule:nonzero;fill:#4398a7;fill-opacity:1;" d="M 75.929688 138.933594 C 75.871094 138.933594 75.804688 138.917969 75.71875 138.894531 C 75.660156 138.851562 75.621094 138.796875 75.59375 138.746094 C 75.535156 138.660156 75.53125 138.558594 75.574219 138.429688 C 75.625 138.304688 75.675781 138.183594 75.71875 138.074219 C 75.746094 138.015625 75.765625 137.96875 75.78125 137.929688 C 75.808594 137.886719 75.828125 137.832031 75.84375 137.78125 C 76.542969 135.609375 77.429688 133.320312 78.507812 130.902344 C 78.601562 130.683594 78.65625 130.480469 78.65625 130.296875 C 78.65625 130.101562 78.511719 129.855469 78.234375 129.5625 C 77.800781 129.140625 77.5625 128.753906 77.523438 128.386719 C 77.492188 128 77.675781 127.628906 78.066406 127.277344 C 78.488281 126.914062 78.90625 126.648438 79.324219 126.480469 C 79.898438 126.226562 80.398438 125.886719 80.835938 125.453125 C 81.28125 125.023438 81.699219 124.441406 82.09375 123.710938 C 82.734375 122.496094 83.398438 121.289062 84.085938 120.082031 C 84.78125 118.867188 85.476562 117.683594 86.160156 116.519531 C 86.414062 116.074219 86.664062 115.632812 86.917969 115.199219 C 87.167969 114.769531 87.417969 114.339844 87.671875 113.917969 C 87.714844 113.824219 87.761719 113.726562 87.816406 113.625 C 87.886719 113.53125 87.953125 113.453125 88.027344 113.394531 C 88.121094 113.328125 88.222656 113.289062 88.320312 113.289062 C 88.429688 113.289062 88.550781 113.34375 88.679688 113.4375 C 88.84375 113.578125 88.875 113.761719 88.78125 113.980469 C 88.65625 114.265625 88.515625 114.527344 88.363281 114.777344 C 87.609375 115.941406 86.878906 117.128906 86.183594 118.34375 C 85.480469 119.550781 84.796875 120.742188 84.128906 121.929688 C 83.945312 122.253906 83.761719 122.574219 83.582031 122.894531 C 83.414062 123.21875 83.238281 123.53125 83.058594 123.835938 C 83.027344 123.878906 82.996094 123.972656 82.953125 124.109375 C 82.9375 124.140625 82.910156 124.230469 82.871094 124.382812 C 82.828125 124.539062 82.804688 124.613281 82.804688 124.613281 L 82.972656 124.507812 C 84.257812 123.867188 85.515625 123.246094 86.75 122.640625 C 87.976562 122.042969 89.222656 121.488281 90.480469 120.984375 C 90.566406 120.941406 90.648438 120.902344 90.734375 120.859375 C 90.828125 120.816406 90.921875 120.785156 91.003906 120.753906 C 91.476562 120.546875 91.96875 120.355469 92.472656 120.1875 C 92.988281 120.011719 93.542969 119.910156 94.128906 119.894531 C 94.324219 119.894531 94.484375 119.925781 94.613281 119.980469 C 94.738281 120.035156 94.832031 120.136719 94.90625 120.273438 C 94.957031 120.386719 94.96875 120.503906 94.925781 120.628906 C 94.882812 120.742188 94.828125 120.832031 94.757812 120.902344 C 94.699219 120.941406 94.652344 120.964844 94.613281 120.964844 C 94.554688 120.964844 94.496094 120.953125 94.445312 120.921875 C 94.386719 120.878906 94.328125 120.839844 94.277344 120.796875 C 94.175781 120.753906 94.085938 120.710938 94.003906 120.671875 C 93.921875 120.617188 93.835938 120.585938 93.753906 120.585938 C 93.695312 120.585938 93.636719 120.601562 93.585938 120.628906 C 93.527344 120.628906 93.46875 120.648438 93.417969 120.691406 C 93.375 120.734375 93.324219 120.769531 93.269531 120.796875 C 93.226562 120.828125 93.1875 120.859375 93.144531 120.902344 C 93.101562 120.933594 93.058594 120.960938 93.019531 120.984375 C 91.382812 121.605469 89.777344 122.285156 88.214844 123.039062 C 86.664062 123.796875 85.140625 124.566406 83.644531 125.347656 L 82.050781 126.164062 C 81.882812 126.25 81.746094 126.351562 81.652344 126.480469 C 81.570312 126.605469 81.492188 126.742188 81.421875 126.878906 C 81.28125 127.144531 81.140625 127.421875 81.003906 127.714844 C 80.863281 128 80.71875 128.277344 80.582031 128.554688 C 80.359375 129.03125 80.191406 129.410156 80.082031 129.6875 C 79.980469 129.953125 79.980469 130.199219 80.082031 130.421875 C 80.164062 130.648438 80.359375 130.871094 80.667969 131.09375 C 80.988281 131.3125 81.449219 131.605469 82.050781 131.972656 C 82.414062 132.191406 82.941406 132.480469 83.644531 132.832031 C 84.34375 133.195312 85.140625 133.59375 86.035156 134.027344 C 86.925781 134.472656 87.859375 134.929688 88.824219 135.390625 C 89.800781 135.863281 90.757812 136.320312 91.695312 136.753906 C 92.644531 137.183594 93.503906 137.570312 94.277344 137.90625 C 95.042969 138.253906 95.671875 138.519531 96.164062 138.703125 C 96.542969 138.871094 96.773438 138.996094 96.855469 139.082031 C 96.9375 139.164062 96.980469 139.21875 96.980469 139.25 C 96.964844 139.273438 96.929688 139.289062 96.875 139.289062 C 96.75 139.289062 96.574219 139.25 96.351562 139.164062 C 96.125 139.082031 95.945312 139.003906 95.808594 138.933594 C 95.734375 138.902344 95.6875 138.894531 95.660156 138.894531 C 94.890625 138.582031 93.984375 138.191406 92.933594 137.71875 C 92.640625 137.59375 92.199219 137.386719 91.613281 137.109375 C 91.027344 136.828125 90.339844 136.503906 89.558594 136.125 C 88.789062 135.757812 87.992188 135.375 87.167969 134.972656 C 86.339844 134.578125 85.542969 134.195312 84.777344 133.816406 C 84.023438 133.441406 83.355469 133.09375 82.785156 132.789062 C 82.207031 132.496094 81.800781 132.265625 81.546875 132.097656 C 81.171875 131.859375 80.796875 131.605469 80.4375 131.34375 C 80.101562 131.117188 79.851562 131.007812 79.683594 131.007812 C 79.554688 131.007812 79.453125 131.054688 79.367188 131.15625 C 79.292969 131.265625 79.230469 131.394531 79.179688 131.554688 C 78.71875 132.671875 78.261719 133.777344 77.816406 134.867188 C 77.363281 135.96875 76.925781 137.035156 76.496094 138.074219 C 76.480469 138.117188 76.453125 138.183594 76.410156 138.285156 C 76.367188 138.4375 76.304688 138.582031 76.222656 138.726562 C 76.148438 138.859375 76.054688 138.933594 75.929688 138.933594 Z M 80.039062 127.253906 L 79.890625 127.316406 C 79.355469 127.570312 78.972656 127.777344 78.738281 127.945312 C 78.496094 128.113281 78.367188 128.292969 78.339844 128.472656 C 78.339844 128.628906 78.386719 128.785156 78.488281 128.953125 C 78.582031 129.109375 78.722656 129.304688 78.90625 129.539062 L 78.988281 129.625 L 79.03125 129.539062 C 79.242188 129.203125 79.421875 128.871094 79.578125 128.535156 C 79.746094 128.199219 79.882812 127.835938 79.996094 127.445312 Z M 80.039062 127.253906 "/><path style=" stroke:none;fill-rule:nonzero;fill:#4398a7;fill-opacity:1;" d="M 94 128.050781 C 94.023438 128.082031 94.039062 128.136719 94.039062 128.21875 C 94.039062 128.320312 93.984375 128.402344 93.871094 128.472656 C 93.773438 128.542969 93.691406 128.605469 93.621094 128.660156 C 93.410156 128.84375 93.191406 129.027344 92.972656 129.203125 C 92.746094 129.386719 92.519531 129.554688 92.300781 129.707031 C 91.824219 130.042969 91.316406 130.347656 90.769531 130.609375 C 90.234375 130.878906 89.667969 131.09375 89.070312 131.261719 C 88.820312 131.3125 88.550781 131.34375 88.273438 131.34375 C 88.007812 131.34375 87.734375 131.21875 87.457031 130.964844 C 87.179688 130.730469 87.027344 130.480469 86.996094 130.210938 C 86.96875 129.949219 86.988281 129.6875 87.058594 129.4375 C 87.285156 128.585938 87.59375 127.789062 88 127.046875 C 88.421875 126.304688 88.925781 125.621094 89.511719 124.992188 C 89.5625 124.90625 89.640625 124.832031 89.742188 124.757812 C 89.835938 124.675781 89.960938 124.695312 90.121094 124.824219 C 90.296875 124.964844 90.355469 125.089844 90.289062 125.199219 C 90.230469 125.300781 90.171875 125.390625 90.121094 125.472656 C 89.726562 126.117188 89.34375 126.761719 88.964844 127.402344 C 88.589844 128.046875 88.253906 128.71875 87.960938 129.414062 C 87.917969 129.539062 87.855469 129.675781 87.769531 129.8125 C 87.699219 129.953125 87.667969 130.097656 87.667969 130.234375 C 87.667969 130.375 87.734375 130.515625 87.875 130.652344 C 88.097656 130.894531 88.34375 130.996094 88.609375 130.964844 C 88.886719 130.925781 89.140625 130.878906 89.363281 130.820312 C 89.867188 130.710938 90.320312 130.542969 90.726562 130.316406 C 91.148438 130.097656 91.546875 129.84375 91.921875 129.5625 C 91.964844 129.519531 92.082031 129.414062 92.28125 129.246094 C 92.488281 129.070312 92.710938 128.878906 92.949219 128.679688 C 93.1875 128.472656 93.402344 128.3125 93.601562 128.199219 C 93.808594 128.074219 93.941406 128.027344 94 128.050781 Z M 90.957031 123.941406 C 90.664062 123.957031 90.480469 123.828125 90.414062 123.542969 C 90.339844 123.292969 90.359375 123.113281 90.476562 123 C 90.601562 122.886719 90.769531 122.832031 90.980469 122.832031 C 91.132812 122.820312 91.261719 122.847656 91.378906 122.914062 C 91.488281 122.988281 91.566406 123.117188 91.609375 123.3125 C 91.617188 123.523438 91.566406 123.679688 91.441406 123.773438 C 91.316406 123.859375 91.152344 123.914062 90.957031 123.941406 Z M 90.957031 123.941406 "/><path style=" stroke:none;fill-rule:nonzero;fill:#4398a7;fill-opacity:1;" d="M 104.230469 121.804688 C 104.269531 121.84375 104.296875 121.902344 104.3125 121.972656 C 104.3125 122.011719 104.296875 122.050781 104.269531 122.074219 C 104.253906 122.105469 104.207031 122.117188 104.125 122.117188 C 104.082031 122.117188 104.039062 122.117188 104 122.117188 C 103.957031 122.105469 103.914062 122.097656 103.871094 122.097656 L 103.789062 122.097656 C 103.085938 122.003906 102.40625 121.945312 101.734375 121.929688 C 101.0625 121.902344 100.414062 121.886719 99.785156 121.886719 L 98.820312 121.90625 C 98.660156 121.90625 98.492188 121.90625 98.316406 121.90625 C 98.148438 121.898438 97.984375 121.886719 97.832031 121.886719 C 97.625 121.886719 97.445312 121.917969 97.308594 121.972656 C 97.183594 122.011719 97.078125 122.117188 96.996094 122.285156 L 96.660156 122.914062 C 95.847656 124.496094 95.050781 126.121094 94.269531 127.800781 C 93.484375 129.46875 92.863281 131.207031 92.402344 133.042969 C 92.039062 134.480469 91.875 135.792969 91.898438 136.984375 C 91.898438 137.027344 91.898438 137.074219 91.898438 137.132812 C 91.898438 137.242188 91.910156 137.347656 91.921875 137.445312 C 91.921875 137.554688 91.957031 137.65625 92.023438 137.738281 C 92.140625 137.847656 92.308594 137.917969 92.527344 137.949219 C 92.585938 137.949219 92.628906 137.960938 92.652344 137.992188 C 92.695312 138.042969 92.726562 138.105469 92.738281 138.179688 C 92.753906 138.273438 92.738281 138.335938 92.695312 138.367188 C 92.644531 138.394531 92.585938 138.410156 92.527344 138.410156 C 91.972656 138.410156 91.617188 138.144531 91.460938 137.613281 C 91.375 137.347656 91.34375 137.078125 91.355469 136.816406 C 91.355469 136.566406 91.371094 136.3125 91.394531 136.0625 L 91.417969 135.914062 C 91.515625 134.78125 91.707031 133.683594 91.984375 132.621094 C 92.25 131.574219 92.582031 130.558594 92.96875 129.5625 C 93.347656 128.570312 93.730469 127.589844 94.121094 126.625 L 94.226562 126.375 C 94.421875 125.902344 94.628906 125.441406 94.855469 124.992188 C 95.074219 124.527344 95.296875 124.066406 95.507812 123.605469 C 95.617188 123.398438 95.726562 123.1875 95.839844 122.976562 C 95.953125 122.757812 96.054688 122.535156 96.15625 122.328125 C 96.183594 122.273438 96.199219 122.203125 96.199219 122.117188 C 96.207031 122.035156 96.160156 121.902344 96.050781 121.71875 L 96.03125 121.699219 L 95.988281 121.699219 C 95.707031 121.699219 95.421875 121.699219 95.128906 121.699219 C 94.84375 121.699219 94.5625 121.699219 94.269531 121.699219 C 93.976562 121.6875 93.683594 121.675781 93.386719 121.675781 C 93.09375 121.675781 92.800781 121.675781 92.507812 121.675781 C 91.574219 121.675781 90.746094 121.691406 90.03125 121.71875 C 89.882812 121.71875 89.734375 121.71875 89.59375 121.71875 C 89.441406 121.71875 89.289062 121.71875 89.132812 121.71875 C 88.742188 121.734375 88.351562 121.757812 87.957031 121.78125 C 87.570312 121.796875 87.179688 121.84375 86.804688 121.929688 C 86.695312 121.960938 86.605469 121.972656 86.53125 121.972656 C 86.449219 121.972656 86.375 121.949219 86.300781 121.90625 C 86.273438 121.882812 86.25 121.820312 86.21875 121.71875 C 86.191406 121.609375 86.25 121.550781 86.382812 121.550781 C 86.414062 121.550781 86.464844 121.5625 86.53125 121.574219 C 86.605469 121.574219 86.636719 121.574219 86.636719 121.574219 L 86.699219 121.574219 C 87.402344 121.519531 88.09375 121.484375 88.773438 121.46875 C 89.460938 121.441406 90.074219 121.425781 90.621094 121.425781 C 90.914062 121.425781 91.207031 121.425781 91.5 121.425781 C 91.792969 121.425781 92.082031 121.425781 92.359375 121.425781 C 92.652344 121.441406 92.949219 121.445312 93.242188 121.445312 C 93.535156 121.445312 93.828125 121.445312 94.121094 121.445312 C 94.398438 121.445312 94.671875 121.445312 94.941406 121.445312 C 95.21875 121.445312 95.496094 121.441406 95.777344 121.425781 C 96.039062 121.414062 96.269531 121.375 96.46875 121.300781 C 96.679688 121.214844 96.847656 121.046875 96.972656 120.796875 C 97.503906 119.695312 98.238281 118.636719 99.175781 117.628906 C 99.175781 117.605469 99.195312 117.566406 99.238281 117.527344 C 99.28125 117.484375 99.324219 117.4375 99.363281 117.378906 C 99.40625 117.328125 99.457031 117.292969 99.53125 117.292969 C 99.585938 117.292969 99.65625 117.335938 99.742188 117.421875 C 99.867188 117.519531 99.914062 117.621094 99.886719 117.714844 C 99.855469 117.8125 99.808594 117.917969 99.742188 118.027344 C 99.625 118.171875 99.53125 118.300781 99.449219 118.425781 C 99.363281 118.554688 99.269531 118.671875 99.175781 118.785156 C 98.90625 119.160156 98.636719 119.558594 98.359375 119.980469 C 98.074219 120.386719 97.816406 120.832031 97.582031 121.320312 L 97.519531 121.40625 L 99.195312 121.40625 C 100.539062 121.40625 102.046875 121.507812 103.726562 121.71875 C 103.75 121.71875 103.792969 121.71875 103.851562 121.71875 C 103.917969 121.71875 103.988281 121.730469 104.0625 121.738281 C 104.128906 121.738281 104.1875 121.761719 104.230469 121.804688 Z M 104.230469 121.804688 "/><path style=" stroke:none;fill-rule:nonzero;fill:#4398a7;fill-opacity:1;" d="M 103.914062 128.242188 C 103.941406 128.28125 103.941406 128.339844 103.914062 128.410156 C 103.898438 128.480469 103.863281 128.535156 103.808594 128.574219 C 103.273438 129.011719 102.707031 129.4375 102.109375 129.855469 C 101.507812 130.265625 100.863281 130.640625 100.183594 130.988281 C 99.496094 131.324219 98.746094 131.574219 97.9375 131.742188 C 97.710938 131.792969 97.503906 131.824219 97.308594 131.824219 C 96.804688 131.824219 96.367188 131.648438 95.988281 131.300781 C 95.441406 130.796875 95.3125 130.183594 95.589844 129.457031 C 96.316406 127.542969 97.707031 126.082031 99.761719 125.074219 C 100 124.949219 100.234375 124.886719 100.476562 124.886719 C 100.851562 124.886719 101.179688 125.054688 101.460938 125.390625 C 101.671875 125.597656 101.777344 125.820312 101.777344 126.039062 C 101.785156 126.25 101.757812 126.453125 101.691406 126.648438 C 101.617188 126.832031 101.542969 126.976562 101.460938 127.085938 C 101.359375 127.253906 101.242188 127.402344 101.105469 127.527344 C 100.980469 127.644531 100.859375 127.738281 100.746094 127.820312 L 100.707031 127.84375 C 100.675781 127.875 100.628906 127.90625 100.558594 127.945312 C 100.5 127.988281 100.453125 128.011719 100.414062 128.011719 C 100.355469 128.011719 100.3125 128 100.285156 127.96875 C 100.253906 127.898438 100.277344 127.792969 100.347656 127.652344 C 100.417969 127.515625 100.5 127.375 100.601562 127.234375 C 100.710938 127.097656 100.800781 126.976562 100.875 126.878906 C 101.027344 126.699219 101.109375 126.582031 101.125 126.542969 C 101.125 126.515625 101.136719 126.472656 101.167969 126.417969 C 101.195312 126.332031 101.214844 126.238281 101.230469 126.121094 C 101.242188 126.011719 101.1875 125.902344 101.0625 125.789062 C 100.9375 125.675781 100.800781 125.621094 100.664062 125.621094 C 100.539062 125.621094 100.398438 125.671875 100.246094 125.765625 C 98.441406 126.71875 97.121094 128.125 96.28125 129.980469 C 96.085938 130.433594 96.152344 130.792969 96.46875 131.070312 C 96.707031 131.28125 97.015625 131.386719 97.394531 131.386719 C 97.488281 131.386719 97.59375 131.375 97.707031 131.363281 C 98.390625 131.292969 99.011719 131.132812 99.574219 130.882812 C 100.144531 130.621094 100.632812 130.359375 101.042969 130.105469 C 101.460938 129.871094 101.925781 129.5625 102.445312 129.183594 C 102.515625 129.140625 102.582031 129.09375 102.65625 129.039062 C 102.722656 128.96875 102.792969 128.910156 102.867188 128.871094 C 102.992188 128.757812 103.117188 128.65625 103.242188 128.554688 C 103.378906 128.445312 103.527344 128.355469 103.683594 128.28125 C 103.75 128.242188 103.808594 128.21875 103.851562 128.21875 C 103.878906 128.21875 103.898438 128.230469 103.914062 128.242188 Z M 103.914062 128.242188 "/><path style=" stroke:none;fill-rule:nonzero;fill:#4398a7;fill-opacity:1;" d="M 114.765625 128.175781 C 114.851562 128.34375 114.808594 128.550781 114.640625 128.785156 C 114.484375 129.011719 114.347656 129.195312 114.222656 129.332031 C 114.136719 129.414062 114.082031 129.472656 114.054688 129.5 C 112.78125 131.144531 111.371094 132.246094 109.820312 132.789062 C 109.703125 132.816406 109.585938 132.855469 109.460938 132.894531 C 109.335938 132.9375 109.199219 132.957031 109.0625 132.957031 C 108.796875 132.957031 108.542969 132.855469 108.308594 132.644531 C 108.058594 132.445312 107.898438 132.214844 107.847656 131.953125 C 107.804688 131.699219 107.785156 131.425781 107.785156 131.132812 C 107.796875 130.535156 107.910156 129.980469 108.121094 129.476562 C 108.328125 128.972656 108.550781 128.480469 108.789062 127.988281 L 108.9375 127.652344 C 108.980469 127.601562 109.011719 127.507812 109.042969 127.378906 C 109.085938 127.253906 109.0625 127.160156 108.980469 127.085938 C 108.90625 127.035156 108.832031 127.003906 108.75 127.003906 C 108.566406 127.003906 108.339844 127.101562 108.078125 127.296875 C 107.828125 127.496094 107.597656 127.683594 107.386719 127.863281 L 107.363281 127.90625 C 107.207031 128.03125 107.0625 128.171875 106.925781 128.324219 C 106.800781 128.464844 106.671875 128.605469 106.546875 128.742188 C 106.472656 128.816406 106.402344 128.890625 106.316406 128.972656 C 106.234375 129.058594 106.152344 129.140625 106.085938 129.226562 L 105.6875 129.625 C 105.445312 129.867188 105.210938 130.105469 104.976562 130.359375 C 104.734375 130.597656 104.492188 130.835938 104.242188 131.070312 C 104.15625 131.140625 104.074219 131.203125 103.988281 131.261719 C 103.90625 131.3125 103.804688 131.34375 103.695312 131.34375 C 103.570312 131.34375 103.449219 131.308594 103.339844 131.238281 C 103.160156 131.125 103.054688 130.996094 103.023438 130.839844 C 103 130.671875 102.992188 130.503906 103.003906 130.335938 C 103.046875 129.570312 103.1875 128.84375 103.421875 128.15625 C 103.675781 127.460938 103.929688 126.78125 104.199219 126.121094 C 104.292969 125.902344 104.476562 125.53125 104.742188 125.011719 C 105.023438 124.496094 105.339844 123.898438 105.707031 123.230469 C 106.085938 122.558594 106.472656 121.859375 106.882812 121.132812 C 107.300781 120.410156 107.699219 119.707031 108.078125 119.035156 C 108.464844 118.363281 108.800781 117.789062 109.085938 117.292969 C 109.363281 116.792969 109.566406 116.425781 109.691406 116.183594 C 109.871094 115.863281 110.058594 115.542969 110.257812 115.21875 C 110.46875 114.898438 110.683594 114.589844 110.910156 114.296875 C 110.992188 114.203125 111.101562 114.054688 111.246094 113.855469 C 111.378906 113.644531 111.539062 113.46875 111.707031 113.3125 C 111.875 113.144531 112.03125 113.070312 112.1875 113.078125 C 112.367188 113.097656 112.449219 113.179688 112.441406 113.332031 C 112.441406 113.472656 112.402344 113.625 112.335938 113.792969 C 112.234375 114.019531 112.113281 114.226562 111.976562 114.421875 C 111.835938 114.621094 111.746094 114.746094 111.707031 114.800781 C 111.4375 115.136719 111.101562 115.632812 110.699219 116.289062 C 110.304688 116.933594 109.871094 117.667969 109.398438 118.488281 C 108.921875 119.316406 108.433594 120.179688 107.929688 121.070312 C 107.4375 121.964844 106.972656 122.839844 106.527344 123.691406 C 106.089844 124.527344 105.707031 125.300781 105.375 125.996094 C 105.039062 126.683594 104.796875 127.230469 104.660156 127.632812 C 104.503906 128.066406 104.335938 128.503906 104.15625 128.933594 C 103.972656 129.351562 103.832031 129.785156 103.738281 130.234375 C 103.707031 130.398438 103.726562 130.519531 103.800781 130.589844 C 103.84375 130.621094 103.890625 130.632812 103.945312 130.632812 C 104.015625 130.632812 104.097656 130.621094 104.199219 130.589844 C 104.351562 130.503906 104.480469 130.410156 104.597656 130.296875 C 104.707031 130.183594 104.8125 130.066406 104.910156 129.9375 C 104.953125 129.886719 104.996094 129.835938 105.039062 129.792969 C 105.078125 129.738281 105.121094 129.6875 105.164062 129.644531 C 105.257812 129.550781 105.351562 129.457031 105.4375 129.371094 C 105.519531 129.277344 105.609375 129.179688 105.707031 129.078125 C 105.804688 128.984375 105.902344 128.878906 106.003906 128.765625 C 106.113281 128.640625 106.21875 128.527344 106.316406 128.429688 L 106.378906 128.367188 C 106.699219 128.046875 107.035156 127.726562 107.386719 127.402344 C 107.746094 127.082031 108.125 126.792969 108.519531 126.542969 C 108.601562 126.5 108.6875 126.453125 108.769531 126.394531 C 108.863281 126.34375 108.96875 126.3125 109.085938 126.3125 C 109.210938 126.3125 109.324219 126.351562 109.441406 126.4375 C 109.761719 126.664062 109.84375 127 109.691406 127.445312 C 109.578125 127.820312 109.460938 128.191406 109.335938 128.554688 C 109.210938 128.921875 109.085938 129.269531 108.957031 129.601562 L 108.875 129.855469 C 108.757812 130.136719 108.65625 130.421875 108.558594 130.714844 C 108.476562 130.996094 108.414062 131.292969 108.371094 131.617188 C 108.339844 131.960938 108.402344 132.222656 108.558594 132.390625 C 108.710938 132.542969 108.9375 132.621094 109.230469 132.621094 C 109.285156 132.621094 109.347656 132.621094 109.421875 132.621094 C 109.753906 132.582031 110.054688 132.496094 110.320312 132.371094 C 110.582031 132.257812 110.832031 132.128906 111.054688 131.992188 C 111.753906 131.542969 112.382812 131.007812 112.941406 130.378906 C 113.109375 130.199219 113.261719 130.011719 113.402344 129.8125 C 113.539062 129.601562 113.675781 129.402344 113.800781 129.203125 C 113.886719 129.070312 113.96875 128.925781 114.054688 128.785156 C 114.148438 128.648438 114.242188 128.507812 114.328125 128.367188 C 114.367188 128.339844 114.414062 128.296875 114.472656 128.242188 C 114.542969 128.171875 114.609375 128.136719 114.683594 128.136719 C 114.710938 128.136719 114.734375 128.152344 114.765625 128.175781 Z M 114.765625 128.175781 "/><path style=" stroke:none;fill-rule:nonzero;fill:#4398a7;fill-opacity:1;" d="M 120.535156 128.261719 C 120.621094 128.21875 120.714844 128.199219 120.832031 128.199219 C 120.839844 128.257812 120.816406 128.3125 120.746094 128.367188 C 120.6875 128.425781 120.640625 128.480469 120.601562 128.535156 L 120.472656 128.617188 C 120.023438 128.953125 119.574219 129.285156 119.109375 129.601562 C 118.648438 129.929688 118.144531 130.191406 117.601562 130.398438 C 117.066406 130.609375 116.480469 130.714844 115.839844 130.714844 L 115.757812 130.714844 C 115.109375 130.714844 114.613281 130.519531 114.265625 130.128906 C 113.964844 129.765625 113.859375 129.324219 113.953125 128.804688 C 114.296875 127.085938 115.421875 125.976562 117.308594 125.472656 C 117.402344 125.445312 117.5 125.429688 117.601562 125.429688 C 117.90625 125.429688 118.152344 125.566406 118.335938 125.828125 C 118.488281 126.039062 118.535156 126.21875 118.480469 126.351562 C 118.425781 126.496094 118.339844 126.640625 118.230469 126.792969 C 117.726562 127.414062 116.894531 127.8125 115.734375 127.988281 C 115.316406 128.046875 115.042969 128.210938 114.917969 128.472656 C 114.800781 128.738281 114.710938 129.015625 114.644531 129.308594 L 114.625 129.457031 C 114.582031 129.625 114.613281 129.785156 114.730469 129.9375 C 114.863281 130.121094 115.085938 130.265625 115.378906 130.359375 C 115.597656 130.414062 115.839844 130.441406 116.089844 130.441406 C 116.300781 130.441406 116.496094 130.433594 116.679688 130.398438 C 116.855469 130.359375 117.0625 130.304688 117.285156 130.234375 C 117.941406 130.054688 118.609375 129.738281 119.277344 129.289062 C 119.574219 129.09375 119.855469 128.863281 120.136719 128.597656 C 120.164062 128.585938 120.191406 128.570312 120.222656 128.554688 C 120.25 128.527344 120.269531 128.503906 120.285156 128.472656 C 120.328125 128.429688 120.371094 128.398438 120.410156 128.367188 C 120.453125 128.339844 120.496094 128.304688 120.535156 128.261719 Z M 115.964844 127.296875 L 115.839844 127.445312 L 116.027344 127.402344 C 116.472656 127.308594 116.851562 127.171875 117.160156 127.003906 C 117.464844 126.835938 117.730469 126.574219 117.957031 126.207031 L 118.042969 126.058594 L 117.875 126.121094 C 117.507812 126.238281 117.167969 126.375 116.847656 126.542969 C 116.539062 126.710938 116.242188 126.960938 115.964844 127.296875 Z M 115.964844 127.296875 "/><path style=" stroke:none;fill-rule:nonzero;fill:#4398a7;fill-opacity:1;" d="M 130.617188 127.882812 C 130.6875 127.941406 130.726562 127.988281 130.742188 128.03125 C 130.753906 128.089844 130.742188 128.136719 130.703125 128.175781 C 130.671875 128.21875 130.644531 128.261719 130.617188 128.304688 C 130.558594 128.34375 130.523438 128.382812 130.511719 128.410156 C 129.476562 130.015625 128 131.355469 126.089844 132.433594 C 125.890625 132.558594 125.632812 132.621094 125.3125 132.621094 L 125.292969 132.621094 C 124.964844 132.621094 124.730469 132.539062 124.578125 132.371094 C 124.394531 132.203125 124.304688 131.957031 124.304688 131.636719 C 124.304688 131.34375 124.359375 131.082031 124.472656 130.863281 C 124.585938 130.625 124.703125 130.398438 124.832031 130.191406 L 125.019531 129.875 C 125.0625 129.808594 125.101562 129.738281 125.144531 129.667969 C 125.1875 129.582031 125.230469 129.507812 125.269531 129.4375 L 125.292969 129.371094 C 125.300781 129.320312 125.316406 129.257812 125.332031 129.183594 C 125.359375 129.117188 125.332031 129.03125 125.25 128.933594 C 125.148438 128.839844 125.03125 128.785156 124.894531 128.785156 C 124.835938 128.785156 124.777344 128.800781 124.726562 128.828125 C 124.472656 128.886719 124.222656 128.949219 123.96875 129.015625 C 123.730469 129.089844 123.488281 129.15625 123.238281 129.226562 C 122.910156 129.339844 122.609375 129.472656 122.3125 129.625 C 122.019531 129.78125 121.730469 129.933594 121.453125 130.085938 C 121.328125 130.160156 121.203125 130.226562 121.078125 130.296875 C 120.960938 130.367188 120.847656 130.433594 120.71875 130.484375 L 120.65625 130.527344 C 120.601562 130.566406 120.535156 130.605469 120.46875 130.632812 C 120.410156 130.648438 120.355469 130.652344 120.300781 130.652344 C 120.191406 130.652344 120.070312 130.605469 119.945312 130.503906 C 119.808594 130.378906 119.734375 130.269531 119.734375 130.167969 C 119.734375 130.058594 119.75 129.949219 119.777344 129.835938 L 119.777344 129.75 C 120.019531 128.71875 120.394531 127.800781 120.929688 127.003906 L 120.972656 126.941406 C 121 126.898438 121.023438 126.855469 121.054688 126.816406 C 121.097656 126.761719 121.144531 126.730469 121.203125 126.730469 C 121.230469 126.730469 121.265625 126.746094 121.308594 126.773438 C 121.390625 126.816406 121.445312 126.867188 121.476562 126.917969 C 121.542969 127.046875 121.546875 127.203125 121.496094 127.378906 C 121.4375 127.546875 121.375 127.691406 121.308594 127.800781 C 121.265625 127.875 121.246094 127.921875 121.246094 127.945312 L 120.59375 129.667969 C 120.578125 129.683594 120.5625 129.71875 120.554688 129.769531 C 120.535156 129.828125 120.558594 129.875 120.617188 129.917969 C 120.667969 129.960938 120.730469 129.980469 120.804688 129.980469 C 120.871094 129.980469 120.957031 129.96875 121.054688 129.9375 C 121.167969 129.898438 121.234375 129.871094 121.265625 129.855469 C 121.332031 129.828125 121.390625 129.800781 121.433594 129.769531 C 121.484375 129.730469 121.542969 129.699219 121.601562 129.667969 C 121.652344 129.613281 121.710938 129.570312 121.769531 129.539062 C 121.820312 129.5 121.882812 129.46875 121.957031 129.4375 C 122.152344 129.339844 122.355469 129.246094 122.566406 129.164062 C 122.777344 129.070312 122.984375 128.972656 123.195312 128.890625 C 123.707031 128.671875 124.191406 128.527344 124.640625 128.472656 C 124.726562 128.460938 124.792969 128.449219 124.851562 128.449219 C 125.171875 128.449219 125.429688 128.554688 125.628906 128.765625 C 125.835938 129.003906 125.890625 129.304688 125.796875 129.667969 C 125.738281 129.875 125.667969 130.085938 125.585938 130.296875 C 125.511719 130.496094 125.4375 130.6875 125.355469 130.882812 C 125.3125 130.996094 125.261719 131.101562 125.207031 131.21875 C 125.164062 131.328125 125.125 131.4375 125.082031 131.554688 L 125.0625 131.636719 C 125.019531 131.691406 124.988281 131.761719 124.976562 131.847656 C 124.960938 131.941406 125 132.023438 125.082031 132.097656 C 125.175781 132.191406 125.292969 132.246094 125.417969 132.246094 C 125.46875 132.246094 125.523438 132.234375 125.5625 132.222656 C 125.617188 132.222656 125.667969 132.214844 125.710938 132.203125 C 126.308594 132.019531 126.828125 131.753906 127.261719 131.40625 C 127.691406 131.070312 128.089844 130.730469 128.457031 130.378906 C 128.734375 130.085938 129.046875 129.765625 129.378906 129.414062 C 129.714844 129.054688 129.992188 128.648438 130.21875 128.199219 L 130.261719 128.15625 C 130.289062 128.089844 130.324219 128.019531 130.367188 127.945312 C 130.40625 127.878906 130.457031 127.84375 130.511719 127.84375 C 130.539062 127.84375 130.574219 127.859375 130.617188 127.882812 Z M 130.617188 127.882812 "/><path style=" stroke:none;fill-rule:nonzero;fill:#4398a7;fill-opacity:1;" d="M 146.082031 124.96875 C 146.152344 125.085938 146.167969 125.15625 146.125 125.199219 C 146.082031 125.242188 146.007812 125.292969 145.914062 125.347656 L 145.851562 125.390625 C 145.277344 125.683594 144.75 126.027344 144.28125 126.417969 C 143.816406 126.808594 143.367188 127.203125 142.9375 127.589844 L 142.558594 127.925781 C 142.335938 128.125 142.246094 128.304688 142.289062 128.472656 C 142.328125 128.640625 142.488281 128.824219 142.769531 129.015625 C 143.273438 129.382812 143.746094 129.738281 144.195312 130.085938 C 144.28125 130.167969 144.347656 130.25 144.40625 130.316406 C 144.457031 130.375 144.46875 130.433594 144.425781 130.484375 C 144.394531 130.542969 144.351562 130.566406 144.300781 130.566406 C 144.257812 130.566406 144.207031 130.558594 144.152344 130.527344 C 144.097656 130.5 144.046875 130.472656 144.007812 130.441406 C 143.292969 130.082031 142.707031 129.683594 142.246094 129.246094 C 142.019531 129.039062 141.832031 128.933594 141.679688 128.933594 C 141.539062 128.933594 141.394531 129.003906 141.261719 129.140625 C 140.910156 129.492188 140.496094 129.828125 140.023438 130.148438 C 139.546875 130.457031 138.980469 130.671875 138.324219 130.796875 C 138.199219 130.832031 138.0625 130.839844 137.925781 130.839844 C 137.699219 130.839844 137.476562 130.8125 137.253906 130.757812 C 136.878906 130.632812 136.617188 130.457031 136.480469 130.234375 C 136.320312 130.039062 136.269531 129.785156 136.3125 129.476562 C 136.40625 128.949219 136.667969 128.449219 137.085938 127.988281 C 137.421875 127.628906 137.757812 127.265625 138.09375 126.898438 C 138.441406 126.535156 138.804688 126.179688 139.183594 125.828125 C 139.445312 125.578125 139.539062 125.253906 139.457031 124.84375 C 139.230469 123.585938 139.320312 122.472656 139.730469 121.507812 C 140.148438 120.535156 140.828125 119.820312 141.785156 119.371094 C 142.3125 119.117188 142.863281 118.984375 143.441406 118.953125 L 143.648438 118.953125 C 143.84375 118.953125 144.097656 118.988281 144.40625 119.054688 C 144.710938 119.113281 144.960938 119.265625 145.160156 119.515625 C 145.539062 120.011719 145.601562 120.546875 145.347656 121.132812 C 145.164062 121.582031 144.914062 121.964844 144.59375 122.285156 C 144.269531 122.59375 143.953125 122.871094 143.648438 123.125 C 143.300781 123.40625 142.941406 123.679688 142.582031 123.941406 C 142.230469 124.195312 141.878906 124.441406 141.53125 124.675781 C 141.40625 124.773438 141.269531 124.875 141.132812 124.96875 C 140.992188 125.070312 140.863281 125.15625 140.734375 125.242188 C 140.621094 125.339844 140.53125 125.441406 140.464844 125.535156 C 140.390625 125.621094 140.410156 125.765625 140.527344 125.976562 C 140.535156 126.035156 140.558594 126.097656 140.589844 126.164062 C 140.613281 126.222656 140.652344 126.28125 140.695312 126.332031 C 140.777344 126.558594 140.871094 126.78125 140.988281 127.003906 C 141.113281 127.230469 141.28125 127.4375 141.492188 127.632812 C 141.542969 127.664062 141.601562 127.675781 141.660156 127.675781 C 141.710938 127.675781 141.761719 127.652344 141.804688 127.613281 C 141.847656 127.570312 141.894531 127.523438 141.953125 127.464844 C 141.976562 127.421875 142 127.394531 142.015625 127.378906 L 142.222656 127.171875 C 142.570312 126.835938 142.925781 126.511719 143.292969 126.183594 C 143.65625 125.851562 144.054688 125.554688 144.488281 125.304688 C 144.808594 125.125 145.160156 124.980469 145.539062 124.863281 C 145.5625 124.855469 145.601562 124.839844 145.640625 124.824219 C 145.695312 124.8125 145.753906 124.800781 145.808594 124.800781 C 145.9375 124.800781 146.023438 124.859375 146.082031 124.96875 Z M 141.132812 120.796875 C 140.347656 121.792969 140.023438 122.929688 140.148438 124.214844 C 140.148438 124.230469 140.152344 124.289062 140.167969 124.382812 C 140.179688 124.457031 140.195312 124.539062 140.210938 124.632812 C 140.238281 124.71875 140.253906 124.773438 140.253906 124.800781 L 140.359375 124.863281 L 141.425781 124.089844 C 141.832031 123.769531 142.234375 123.460938 142.644531 123.167969 C 143.046875 122.863281 143.449219 122.558594 143.859375 122.265625 C 144.332031 121.886719 144.703125 121.445312 144.972656 120.941406 C 145.054688 120.777344 145.101562 120.582031 145.117188 120.355469 C 145.128906 120.121094 145.078125 119.910156 144.949219 119.726562 C 144.910156 119.675781 144.828125 119.601562 144.71875 119.515625 C 144.621094 119.433594 144.472656 119.382812 144.28125 119.351562 C 144.195312 119.339844 144.101562 119.328125 144.007812 119.328125 C 143.683594 119.328125 143.382812 119.382812 143.105469 119.476562 C 142.835938 119.574219 142.621094 119.660156 142.457031 119.726562 C 141.953125 119.980469 141.511719 120.335938 141.132812 120.796875 Z M 140.253906 129.164062 C 140.546875 128.902344 140.742188 128.691406 140.839844 128.535156 C 140.933594 128.382812 140.945312 128.210938 140.863281 128.011719 C 140.777344 127.800781 140.613281 127.484375 140.378906 127.066406 C 140.320312 126.957031 140.257812 126.847656 140.191406 126.730469 C 140.132812 126.621094 140.070312 126.5 140 126.375 L 139.792969 125.933594 L 139.730469 125.976562 C 139.167969 126.425781 138.617188 126.898438 138.074219 127.402344 C 137.539062 127.894531 137.117188 128.480469 136.816406 129.164062 L 136.773438 129.269531 C 136.699219 129.394531 136.652344 129.535156 136.625 129.6875 C 136.59375 129.828125 136.667969 129.980469 136.835938 130.148438 C 137.054688 130.375 137.328125 130.484375 137.652344 130.484375 C 137.761719 130.484375 137.882812 130.472656 138.007812 130.441406 C 138.496094 130.347656 138.917969 130.179688 139.269531 129.9375 C 139.628906 129.703125 139.960938 129.445312 140.253906 129.164062 Z M 140.253906 129.164062 "/><path style=" stroke:none;fill-rule:nonzero;fill:#4398a7;fill-opacity:1;" d="M 168.140625 126.394531 C 168.4375 126.71875 168.644531 127.078125 168.769531 127.464844 C 168.90625 127.859375 169 128.25 169.042969 128.640625 C 169.070312 128.847656 169.085938 129.058594 169.085938 129.269531 C 169.097656 129.46875 169.097656 129.660156 169.085938 129.855469 C 169.070312 130.234375 169.011719 130.609375 168.917969 130.988281 C 168.835938 131.347656 168.730469 131.707031 168.601562 132.058594 C 168.476562 132.359375 168.332031 132.671875 168.164062 132.980469 C 167.996094 133.285156 167.8125 133.570312 167.617188 133.839844 C 165.269531 137.195312 162.085938 139.1875 158.078125 139.816406 C 157.835938 139.839844 157.601562 139.855469 157.363281 139.855469 C 156.902344 139.855469 156.367188 139.777344 155.769531 139.625 C 154.941406 139.425781 154.304688 139.023438 153.839844 138.410156 C 153.363281 137.78125 153.191406 137.089844 153.316406 136.335938 C 153.453125 135.5625 153.742188 134.898438 154.175781 134.34375 C 154.621094 133.78125 155.101562 133.261719 155.601562 132.789062 C 155.613281 132.757812 155.644531 132.734375 155.6875 132.707031 C 155.738281 132.664062 155.792969 132.613281 155.832031 132.558594 C 155.886719 132.519531 155.917969 132.457031 155.917969 132.371094 L 155.917969 132.289062 L 155.855469 132.265625 C 155.308594 132.140625 154.941406 131.972656 154.765625 131.761719 C 154.582031 131.539062 154.511719 131.144531 154.554688 130.589844 C 154.621094 129.640625 154.835938 128.773438 155.203125 127.988281 C 155.566406 127.191406 155.964844 126.449219 156.398438 125.746094 C 157.40625 124.058594 158.460938 122.652344 159.566406 121.53125 C 160.667969 120.398438 161.871094 119.484375 163.171875 118.785156 C 163.351562 118.671875 163.492188 118.546875 163.59375 118.40625 C 163.6875 118.253906 163.78125 118.089844 163.863281 117.925781 C 163.890625 117.882812 163.917969 117.835938 163.949219 117.777344 C 163.976562 117.726562 163.996094 117.671875 164.011719 117.628906 C 164.054688 117.5625 164.085938 117.5 164.117188 117.441406 C 164.15625 117.375 164.199219 117.308594 164.242188 117.253906 C 164.292969 117.160156 164.347656 117.074219 164.390625 117 C 164.429688 116.917969 164.476562 116.832031 164.535156 116.75 C 164.5625 116.695312 164.605469 116.625 164.660156 116.539062 C 164.703125 116.472656 164.734375 116.410156 164.765625 116.351562 C 164.808594 116.28125 164.855469 116.21875 164.914062 116.164062 C 164.921875 116.121094 164.960938 116.089844 165.019531 116.058594 C 165.070312 116.015625 165.128906 115.996094 165.1875 115.996094 C 165.226562 116.011719 165.253906 116.050781 165.269531 116.121094 C 165.28125 116.304688 165.257812 116.472656 165.207031 116.625 C 165.148438 116.78125 165.089844 116.917969 165.039062 117.042969 C 165.039062 117.042969 165.003906 117.117188 164.933594 117.253906 C 164.875 117.378906 164.820312 117.515625 164.765625 117.652344 C 164.722656 117.792969 164.707031 117.875 164.722656 117.902344 L 164.746094 117.945312 L 164.789062 117.945312 C 164.914062 117.945312 165.027344 117.945312 165.144531 117.945312 C 165.253906 117.945312 165.363281 117.945312 165.480469 117.945312 C 165.605469 117.945312 165.71875 117.945312 165.835938 117.945312 C 165.960938 117.933594 166.085938 117.925781 166.214844 117.925781 C 166.339844 117.925781 166.46875 117.933594 166.613281 117.945312 C 166.761719 117.945312 166.910156 117.957031 167.050781 117.964844 C 167.847656 118.023438 168.476562 118.3125 168.9375 118.824219 C 169.382812 119.359375 169.550781 119.996094 169.441406 120.734375 C 169.328125 121.476562 169.066406 122.113281 168.644531 122.640625 C 168.238281 123.175781 167.785156 123.679688 167.28125 124.152344 C 167.183594 124.25 167.078125 124.339844 166.96875 124.425781 C 166.867188 124.507812 166.761719 124.59375 166.652344 124.675781 L 166.253906 125.03125 L 166.445312 125.136719 C 166.738281 125.320312 167.03125 125.507812 167.324219 125.703125 C 167.628906 125.902344 167.902344 126.132812 168.140625 126.394531 Z M 163.445312 128.535156 C 163.554688 128.492188 163.644531 128.503906 163.71875 128.554688 C 163.785156 128.597656 163.8125 128.65625 163.800781 128.722656 C 163.785156 128.78125 163.722656 128.828125 163.613281 128.871094 C 163.121094 129.070312 162.632812 129.261719 162.144531 129.457031 C 161.652344 129.640625 161.171875 129.84375 160.699219 130.066406 C 159.886719 130.472656 159.082031 130.902344 158.285156 131.363281 C 157.5 131.824219 156.765625 132.359375 156.085938 132.980469 C 155.414062 133.59375 154.847656 134.328125 154.386719 135.179688 C 154.261719 135.417969 154.136719 135.683594 154.007812 135.976562 C 153.894531 136.273438 153.847656 136.585938 153.863281 136.921875 C 153.871094 137.265625 154.019531 137.632812 154.304688 138.011719 C 154.582031 138.375 154.878906 138.628906 155.203125 138.789062 C 155.523438 138.941406 155.859375 139.027344 156.210938 139.058594 C 156.574219 139.085938 156.914062 139.101562 157.238281 139.101562 C 157.324219 139.085938 157.394531 139.082031 157.46875 139.082031 C 157.539062 139.082031 157.605469 139.082031 157.679688 139.082031 C 157.816406 139.082031 157.953125 139.070312 158.078125 139.058594 C 158.214844 139.042969 158.355469 139.019531 158.496094 138.976562 C 162.589844 138.0625 165.636719 136.003906 167.640625 132.789062 C 167.933594 132.273438 168.1875 131.691406 168.414062 131.050781 C 168.652344 130.394531 168.753906 129.71875 168.730469 129.015625 C 168.699219 128.304688 168.46875 127.601562 168.039062 126.898438 C 167.785156 126.46875 167.429688 126.160156 166.96875 125.976562 C 166.515625 125.78125 166.078125 125.65625 165.648438 125.597656 C 165.488281 125.589844 165.363281 125.554688 165.269531 125.515625 C 165.167969 125.472656 165.089844 125.398438 165.039062 125.285156 C 164.914062 125.03125 164.964844 124.832031 165.207031 124.675781 C 165.273438 124.609375 165.351562 124.542969 165.4375 124.488281 C 165.519531 124.433594 165.59375 124.378906 165.667969 124.320312 C 165.847656 124.210938 166.015625 124.097656 166.171875 123.984375 C 166.339844 123.875 166.496094 123.753906 166.652344 123.628906 C 167.082031 123.265625 167.519531 122.863281 167.953125 122.410156 C 168.382812 121.949219 168.699219 121.378906 168.898438 120.691406 C 169.035156 120.246094 169.011719 119.820312 168.835938 119.414062 C 168.667969 119.007812 168.363281 118.699219 167.933594 118.488281 C 167.554688 118.3125 167.097656 118.21875 166.570312 118.21875 C 165.980469 118.21875 165.4375 118.332031 164.933594 118.554688 C 164.441406 118.761719 164.125 119.023438 163.992188 119.328125 C 163.75 119.789062 163.527344 120.25 163.320312 120.710938 C 163.109375 121.164062 162.898438 121.613281 162.691406 122.074219 C 161.988281 123.574219 161.265625 125.070312 160.507812 126.5625 C 159.753906 128.046875 158.863281 129.445312 157.847656 130.757812 L 157.785156 130.796875 L 157.886719 130.839844 C 157.972656 130.914062 158.046875 130.945312 158.117188 130.945312 C 158.171875 130.945312 158.222656 130.933594 158.265625 130.902344 C 158.308594 130.878906 158.351562 130.851562 158.390625 130.820312 C 158.433594 130.792969 158.453125 130.777344 158.453125 130.777344 C 158.914062 130.527344 159.367188 130.285156 159.816406 130.042969 C 160.277344 129.808594 160.746094 129.59375 161.222656 129.394531 C 161.585938 129.226562 161.945312 129.078125 162.3125 128.953125 C 162.691406 128.816406 163.066406 128.675781 163.445312 128.535156 Z M 163.003906 119.601562 L 162.859375 119.621094 C 162.605469 119.636719 162.402344 119.695312 162.25 119.789062 C 162.109375 119.875 161.984375 119.96875 161.871094 120.0625 L 161.746094 120.167969 C 159.566406 121.859375 157.789062 124.003906 156.421875 126.605469 C 156.09375 127.191406 155.792969 127.832031 155.496094 128.511719 C 155.214844 129.199219 155.0625 129.953125 155.035156 130.777344 C 155.035156 130.808594 155.027344 130.855469 155.015625 130.925781 C 155 130.996094 155 131.078125 155.015625 131.175781 C 155.027344 131.285156 155.105469 131.390625 155.246094 131.492188 C 155.339844 131.53125 155.433594 131.554688 155.519531 131.554688 C 155.65625 131.554688 155.792969 131.496094 155.917969 131.386719 C 155.984375 131.328125 156.046875 131.269531 156.105469 131.21875 C 156.160156 131.160156 156.214844 131.113281 156.273438 131.070312 C 156.425781 130.945312 156.578125 130.8125 156.734375 130.671875 C 156.886719 130.535156 157.027344 130.378906 157.15625 130.210938 C 158.019531 129.121094 158.773438 127.96875 159.417969 126.75 C 160.058594 125.535156 160.699219 124.277344 161.328125 122.976562 C 161.578125 122.433594 161.835938 121.898438 162.101562 121.363281 C 162.382812 120.816406 162.660156 120.273438 162.941406 119.726562 Z M 163.003906 119.601562 "/><path style=" stroke:none;fill-rule:nonzero;fill:#4398a7;fill-opacity:1;" d="M 180.503906 127.378906 C 180.558594 127.394531 180.59375 127.414062 180.609375 127.421875 C 180.652344 127.480469 180.621094 127.558594 180.527344 127.652344 C 179.234375 129.011719 177.664062 130.207031 175.808594 131.238281 L 175.683594 131.300781 C 175.609375 131.34375 175.535156 131.386719 175.449219 131.425781 C 175.378906 131.46875 175.292969 131.492188 175.199219 131.492188 C 175.074219 131.492188 174.9375 131.433594 174.800781 131.324219 C 174.644531 131.164062 174.570312 131.03125 174.570312 130.902344 C 174.582031 130.765625 174.613281 130.621094 174.652344 130.464844 C 174.664062 130.4375 174.679688 130.414062 174.695312 130.398438 C 174.707031 130.375 174.71875 130.347656 174.71875 130.316406 C 174.828125 129.914062 174.96875 129.53125 175.136719 129.164062 C 175.304688 128.785156 175.476562 128.429688 175.660156 128.09375 C 175.660156 128.09375 175.691406 128.019531 175.765625 127.863281 C 175.847656 127.710938 175.9375 127.546875 176.039062 127.378906 C 176.132812 127.214844 176.207031 127.101562 176.246094 127.046875 C 176.246094 127.035156 176.269531 126.992188 176.3125 126.917969 C 176.421875 126.765625 176.519531 126.605469 176.605469 126.4375 C 176.6875 126.257812 176.710938 126.113281 176.667969 125.996094 C 176.636719 125.945312 176.605469 125.902344 176.5625 125.871094 C 176.519531 125.859375 176.484375 125.851562 176.457031 125.851562 C 176.332031 125.851562 176.191406 125.921875 176.039062 126.058594 C 175.898438 126.203125 175.828125 126.269531 175.828125 126.269531 C 175.746094 126.367188 175.648438 126.496094 175.554688 126.648438 C 175.472656 126.804688 175.417969 126.972656 175.410156 127.148438 L 175.410156 127.234375 C 175.410156 127.277344 175.398438 127.332031 175.386719 127.402344 C 175.386719 127.460938 175.371094 127.484375 175.347656 127.484375 C 175.332031 127.484375 175.292969 127.480469 175.242188 127.464844 C 175.199219 127.453125 175.140625 127.402344 175.074219 127.316406 L 175.011719 127.277344 L 174.90625 127.402344 C 174.863281 127.433594 174.828125 127.464844 174.800781 127.507812 C 174.769531 127.539062 174.742188 127.5625 174.71875 127.589844 C 174.558594 127.746094 174.414062 127.90625 174.277344 128.074219 C 174.152344 128.230469 174.015625 128.382812 173.878906 128.535156 C 173.585938 128.886719 173.277344 129.238281 172.957031 129.582031 C 172.644531 129.917969 172.3125 130.242188 171.949219 130.546875 L 171.824219 130.652344 C 171.707031 130.75 171.59375 130.851562 171.46875 130.945312 C 171.339844 131.03125 171.199219 131.070312 171.046875 131.070312 C 170.921875 131.070312 170.789062 131.03125 170.648438 130.945312 C 170.386719 130.75 170.261719 130.527344 170.273438 130.273438 C 170.289062 130.023438 170.324219 129.78125 170.375 129.539062 L 170.398438 129.4375 C 170.707031 128.234375 171.242188 127.203125 172.011719 126.332031 C 172.558594 125.71875 173.195312 125.410156 173.941406 125.410156 L 174.003906 125.410156 C 174.15625 125.410156 174.308594 125.425781 174.464844 125.453125 C 174.617188 125.46875 174.726562 125.523438 174.800781 125.621094 C 175.035156 125.953125 175.25 126.121094 175.449219 126.121094 C 175.546875 126.121094 175.628906 126.097656 175.703125 126.039062 C 175.785156 125.96875 175.871094 125.890625 175.953125 125.808594 L 176.015625 125.765625 C 176.128906 125.65625 176.253906 125.566406 176.394531 125.492188 C 176.445312 125.46875 176.503906 125.445312 176.5625 125.429688 C 176.613281 125.421875 176.671875 125.410156 176.730469 125.410156 C 176.8125 125.410156 176.902344 125.441406 177.003906 125.492188 C 177.097656 125.578125 177.140625 125.671875 177.128906 125.765625 C 177.128906 125.851562 177.097656 125.945312 177.042969 126.039062 C 176.835938 126.5 176.613281 126.957031 176.394531 127.402344 C 176.183594 127.851562 175.976562 128.296875 175.765625 128.742188 L 175.429688 129.457031 C 175.355469 129.597656 175.292969 129.746094 175.242188 129.898438 C 175.183594 130.039062 175.125 130.179688 175.074219 130.316406 L 174.96875 130.589844 C 174.925781 130.714844 174.925781 130.8125 174.96875 130.882812 C 174.980469 130.925781 175.015625 130.957031 175.074219 130.964844 C 175.117188 130.980469 175.15625 130.988281 175.199219 130.988281 C 175.324219 130.988281 175.472656 130.957031 175.640625 130.882812 C 175.808594 130.8125 175.917969 130.757812 175.976562 130.714844 C 176.378906 130.4375 176.773438 130.160156 177.148438 129.875 C 177.539062 129.597656 177.925781 129.320312 178.304688 129.039062 C 178.414062 128.953125 178.523438 128.863281 178.636719 128.765625 C 178.765625 128.671875 178.890625 128.574219 179.015625 128.492188 C 179.082031 128.425781 179.164062 128.359375 179.246094 128.304688 C 179.332031 128.234375 179.414062 128.167969 179.496094 128.09375 C 179.539062 128.050781 179.570312 128.019531 179.601562 127.988281 C 179.644531 127.960938 179.691406 127.9375 179.75 127.90625 C 179.800781 127.851562 179.863281 127.792969 179.9375 127.738281 C 180.023438 127.667969 180.09375 127.605469 180.167969 127.546875 L 180.253906 127.507812 C 180.292969 127.480469 180.335938 127.453125 180.378906 127.421875 C 180.421875 127.394531 180.460938 127.378906 180.503906 127.378906 Z M 174.988281 126.667969 C 175.117188 126.53125 175.105469 126.363281 174.96875 126.164062 C 174.8125 125.953125 174.621094 125.851562 174.402344 125.851562 C 174.371094 125.851562 174.34375 125.851562 174.320312 125.851562 C 174.007812 125.921875 173.738281 126.027344 173.5 126.164062 C 172.941406 126.488281 172.496094 126.894531 172.160156 127.378906 C 171.824219 127.875 171.53125 128.355469 171.277344 128.828125 C 171.246094 128.886719 171.214844 128.941406 171.171875 128.996094 C 171.140625 129.039062 171.117188 129.078125 171.089844 129.121094 C 171.015625 129.238281 170.949219 129.351562 170.878906 129.476562 C 170.820312 129.601562 170.773438 129.746094 170.734375 129.898438 C 170.734375 129.96875 170.734375 130.085938 170.734375 130.253906 C 170.734375 130.410156 170.773438 130.519531 170.859375 130.589844 C 170.886719 130.648438 170.933594 130.671875 171.003906 130.671875 C 171.058594 130.671875 171.121094 130.652344 171.195312 130.609375 C 171.738281 130.273438 172.222656 129.875 172.640625 129.414062 C 173.0625 128.953125 173.464844 128.488281 173.855469 128.011719 C 174.035156 127.773438 174.21875 127.542969 174.402344 127.316406 C 174.597656 127.097656 174.789062 126.878906 174.988281 126.667969 Z M 174.988281 126.667969 "/><path style=" stroke:none;fill-rule:nonzero;fill:#4398a7;fill-opacity:1;" d="M 187.925781 128.136719 C 188.007812 128.152344 188.054688 128.171875 188.070312 128.199219 C 188.082031 128.230469 188.054688 128.273438 187.988281 128.324219 C 187.761719 128.449219 187.503906 128.511719 187.210938 128.511719 C 186.859375 128.511719 186.5 128.425781 186.121094 128.242188 C 185.742188 128.046875 185.417969 127.792969 185.15625 127.484375 C 184.914062 127.222656 184.738281 127.023438 184.613281 126.898438 C 184.484375 126.773438 184.359375 126.710938 184.234375 126.710938 C 184.132812 126.710938 184.03125 126.746094 183.917969 126.816406 C 183.804688 126.886719 183.667969 126.976562 183.5 127.085938 C 182.898438 127.523438 182.332031 128 181.800781 128.511719 C 181.28125 129.015625 180.78125 129.53125 180.292969 130.042969 L 179.808594 130.503906 C 179.792969 130.535156 179.769531 130.578125 179.726562 130.632812 C 179.683594 130.6875 179.640625 130.734375 179.601562 130.777344 C 179.558594 130.820312 179.503906 130.839844 179.433594 130.839844 C 179.363281 130.839844 179.273438 130.808594 179.160156 130.734375 C 179.023438 130.640625 178.960938 130.535156 178.972656 130.421875 C 178.988281 130.3125 179.007812 130.207031 179.035156 130.105469 L 179.054688 130.042969 C 179.558594 128.441406 180.171875 127.023438 180.898438 125.808594 L 180.941406 125.789062 C 180.984375 125.703125 181.03125 125.628906 181.089844 125.554688 C 181.15625 125.472656 181.226562 125.429688 181.296875 125.429688 C 181.351562 125.429688 181.410156 125.453125 181.464844 125.492188 C 181.5625 125.566406 181.617188 125.628906 181.632812 125.683594 C 181.660156 125.753906 181.660156 125.824219 181.632812 125.890625 C 181.617188 125.949219 181.59375 126.011719 181.550781 126.082031 C 181.519531 126.152344 181.496094 126.203125 181.488281 126.226562 L 181.339844 126.582031 C 181.265625 126.78125 181.195312 126.976562 181.109375 127.171875 C 181.027344 127.355469 180.941406 127.542969 180.859375 127.738281 C 180.800781 127.863281 180.738281 127.988281 180.667969 128.113281 C 180.613281 128.242188 180.566406 128.367188 180.523438 128.492188 C 180.507812 128.492188 180.480469 128.542969 180.4375 128.640625 C 180.398438 128.738281 180.359375 128.84375 180.332031 128.953125 C 180.300781 129.070312 180.300781 129.140625 180.332031 129.183594 L 180.355469 129.203125 L 180.398438 129.226562 C 180.523438 129.199219 180.628906 129.152344 180.710938 129.078125 C 180.804688 128.996094 180.890625 128.910156 180.964844 128.828125 C 180.988281 128.800781 181.015625 128.773438 181.046875 128.742188 C 181.074219 128.71875 181.109375 128.679688 181.152344 128.640625 L 181.949219 127.988281 C 182.199219 127.769531 182.453125 127.558594 182.703125 127.359375 C 182.953125 127.148438 183.207031 126.941406 183.457031 126.730469 C 183.792969 126.480469 184.050781 126.351562 184.234375 126.351562 C 184.386719 126.351562 184.539062 126.433594 184.695312 126.582031 C 184.863281 126.726562 185.0625 126.941406 185.304688 127.234375 C 185.566406 127.558594 185.871094 127.8125 186.207031 127.988281 C 186.550781 128.171875 186.902344 128.261719 187.253906 128.261719 C 187.363281 128.261719 187.472656 128.25 187.589844 128.21875 C 187.632812 128.21875 187.679688 128.214844 187.734375 128.199219 C 187.832031 128.15625 187.894531 128.136719 187.925781 128.136719 Z M 187.925781 128.136719 "/></g></svg>